<svg id="Layer_4" data-name="Layer 4" xmlns="http://www.w3.org/2000/svg" xmlns:xlink="http://www.w3.org/1999/xlink" viewBox="0 0 5117.73 1031.6"><defs><style>.cls-1,.cls-10,.cls-11,.cls-12,.cls-13,.cls-14,.cls-15,.cls-16,.cls-17,.cls-18,.cls-19,.cls-2,.cls-20,.cls-21,.cls-22,.cls-23,.cls-24,.cls-25,.cls-26,.cls-27,.cls-28,.cls-29,.cls-3,.cls-30,.cls-31,.cls-32,.cls-33,.cls-34,.cls-35,.cls-36,.cls-4,.cls-5,.cls-6,.cls-7,.cls-8,.cls-9{fill:none;stroke-miterlimit:10;stroke-width:1.95px;}.cls-1{stroke:url(#linear-gradient);}.cls-2{stroke:url(#linear-gradient-2);}.cls-3{stroke:url(#linear-gradient-3);}.cls-4{stroke:url(#linear-gradient-4);}.cls-5{stroke:url(#linear-gradient-5);}.cls-6{stroke:url(#linear-gradient-6);}.cls-7{stroke:url(#linear-gradient-7);}.cls-8{stroke:url(#linear-gradient-8);}.cls-9{stroke:url(#linear-gradient-9);}.cls-10{stroke:url(#linear-gradient-10);}.cls-11{stroke:url(#linear-gradient-11);}.cls-12{stroke:url(#linear-gradient-12);}.cls-13{stroke:url(#linear-gradient-13);}.cls-14{stroke:url(#linear-gradient-14);}.cls-15{stroke:url(#linear-gradient-15);}.cls-16{stroke:url(#linear-gradient-16);}.cls-17{stroke:url(#linear-gradient-17);}.cls-18{stroke:url(#linear-gradient-18);}.cls-19{stroke:url(#linear-gradient-19);}.cls-20{stroke:url(#linear-gradient-20);}.cls-21{stroke:url(#linear-gradient-21);}.cls-22{stroke:url(#linear-gradient-22);}.cls-23{stroke:url(#linear-gradient-23);}.cls-24{stroke:url(#linear-gradient-24);}.cls-25{stroke:url(#linear-gradient-25);}.cls-26{stroke:url(#linear-gradient-26);}.cls-27{stroke:url(#linear-gradient-27);}.cls-28{stroke:url(#linear-gradient-28);}.cls-29{stroke:url(#linear-gradient-29);}.cls-30{stroke:url(#linear-gradient-30);}.cls-31{stroke:url(#linear-gradient-31);}.cls-32{stroke:url(#linear-gradient-32);}.cls-33{stroke:url(#linear-gradient-33);}.cls-34{stroke:url(#linear-gradient-34);}.cls-35{stroke:url(#linear-gradient-35);}.cls-36{stroke:url(#linear-gradient-36);}</style><linearGradient id="linear-gradient" x1="-0.54" y1="824.44" x2="5116.85" y2="824.44" gradientUnits="userSpaceOnUse"><stop offset="0" stop-color="#fff"/><stop offset="0.07" stop-color="#5ab29f"/><stop offset="0.4" stop-color="#e9bb00"/><stop offset="0.94" stop-color="#eba8da"/><stop offset="1" stop-color="#fff"/></linearGradient><linearGradient id="linear-gradient-2" x1="-0.41" y1="820.4" x2="5116.82" y2="820.4" xlink:href="#linear-gradient"/><linearGradient id="linear-gradient-3" x1="-0.28" y1="816.24" x2="5116.79" y2="816.24" xlink:href="#linear-gradient"/><linearGradient id="linear-gradient-4" x1="-0.15" y1="812.04" x2="5116.76" y2="812.04" xlink:href="#linear-gradient"/><linearGradient id="linear-gradient-5" x1="-0.02" y1="807.54" x2="5116.72" y2="807.54" xlink:href="#linear-gradient"/><linearGradient id="linear-gradient-6" x1="0.1" y1="802.75" x2="5116.68" y2="802.75" xlink:href="#linear-gradient"/><linearGradient id="linear-gradient-7" x1="0.23" y1="797.57" x2="5116.63" y2="797.57" xlink:href="#linear-gradient"/><linearGradient id="linear-gradient-8" x1="0.35" y1="791.85" x2="5116.59" y2="791.85" xlink:href="#linear-gradient"/><linearGradient id="linear-gradient-9" x1="0.48" y1="785.4" x2="5116.53" y2="785.4" xlink:href="#linear-gradient"/><linearGradient id="linear-gradient-10" x1="0.6" y1="777.91" x2="5116.48" y2="777.91" xlink:href="#linear-gradient"/><linearGradient id="linear-gradient-11" x1="0.73" y1="768.86" x2="5116.42" y2="768.86" xlink:href="#linear-gradient"/><linearGradient id="linear-gradient-12" x1="0.85" y1="757.44" x2="5116.36" y2="757.44" xlink:href="#linear-gradient"/><linearGradient id="linear-gradient-13" x1="0.97" y1="742.27" x2="5116.32" y2="742.27" xlink:href="#linear-gradient"/><linearGradient id="linear-gradient-14" x1="1.09" y1="725.57" x2="5116.38" y2="725.57" xlink:href="#linear-gradient"/><linearGradient id="linear-gradient-15" x1="1.21" y1="708.96" x2="5116.45" y2="708.96" xlink:href="#linear-gradient"/><linearGradient id="linear-gradient-16" x1="1.33" y1="692.44" x2="5116.52" y2="692.44" xlink:href="#linear-gradient"/><linearGradient id="linear-gradient-17" x1="1.46" y1="678.19" x2="5116.58" y2="678.19" xlink:href="#linear-gradient"/><linearGradient id="linear-gradient-18" x1="1.58" y1="666.25" x2="5116.65" y2="666.25" xlink:href="#linear-gradient"/><linearGradient id="linear-gradient-19" x1="1.7" y1="655.35" x2="5116.71" y2="655.35" xlink:href="#linear-gradient"/><linearGradient id="linear-gradient-20" x1="1.82" y1="645.64" x2="5116.76" y2="645.64" xlink:href="#linear-gradient"/><linearGradient id="linear-gradient-21" x1="1.94" y1="637.19" x2="5116.82" y2="637.19" xlink:href="#linear-gradient"/><linearGradient id="linear-gradient-22" x1="2.05" y1="632.66" x2="5116.86" y2="632.66" xlink:href="#linear-gradient"/><linearGradient id="linear-gradient-23" x1="2.17" y1="631.68" x2="5116.91" y2="631.68" xlink:href="#linear-gradient"/><linearGradient id="linear-gradient-24" x1="2.29" y1="630.7" x2="5116.95" y2="630.7" xlink:href="#linear-gradient"/><linearGradient id="linear-gradient-25" x1="2.41" y1="629.73" x2="5116.99" y2="629.73" xlink:href="#linear-gradient"/><linearGradient id="linear-gradient-26" x1="2.53" y1="628.75" x2="5117.02" y2="628.75" xlink:href="#linear-gradient"/><linearGradient id="linear-gradient-27" x1="2.65" y1="627.77" x2="5117.05" y2="627.77" xlink:href="#linear-gradient"/><linearGradient id="linear-gradient-28" x1="2.77" y1="626.79" x2="5117.07" y2="626.79" xlink:href="#linear-gradient"/><linearGradient id="linear-gradient-29" x1="2.88" y1="625.81" x2="5117.09" y2="625.81" xlink:href="#linear-gradient"/><linearGradient id="linear-gradient-30" x1="3" y1="624.83" x2="5117.11" y2="624.83" xlink:href="#linear-gradient"/><linearGradient id="linear-gradient-31" x1="3.12" y1="623.85" x2="5117.13" y2="623.85" xlink:href="#linear-gradient"/><linearGradient id="linear-gradient-32" x1="3.24" y1="622.87" x2="5117.15" y2="622.87" xlink:href="#linear-gradient"/><linearGradient id="linear-gradient-33" x1="3.35" y1="621.89" x2="5117.16" y2="621.89" xlink:href="#linear-gradient"/><linearGradient id="linear-gradient-34" x1="3.47" y1="620.91" x2="5117.17" y2="620.91" xlink:href="#linear-gradient"/><linearGradient id="linear-gradient-35" x1="3.59" y1="619.92" x2="5117.19" y2="619.92" xlink:href="#linear-gradient"/><linearGradient id="linear-gradient-36" x1="3.71" y1="618.94" x2="5117.19" y2="618.94" xlink:href="#linear-gradient"/></defs><title>Sprints</title><path class="cls-1" d="M0,599.8C588.62,209.5,1195,1609,1857.69,1060.51c264.59-219,951.18-151.92,1341.19-6.66C4375,1491.9,3870.69-140.39,5116.3,707.18" transform="translate(0.54 -159.11)"/><path class="cls-2" d="M.11,613.46c517-328.38,1000.67,563.86,1531.47,556.79,108.89-1.45,218.83-38.93,331-128.71,122.88-98.16,333.95-135.75,566.11-132.85,270.46,3.24,560.83,50.3,776.51,128.47,86,31.17,163.26,52.34,233.5,64.4C4311.51,1250,3975.59-27.24,5116.3,691.53" transform="translate(0.54 -159.11)"/><path class="cls-3" d="M.23,627.12c544.48-332.23,1010.26,539.24,1535.65,523.65,109.14-3.24,218.92-41.07,331.52-128.19,123.65-95.26,333.79-130.29,566.88-124.85,271.1,6.06,555.8,44.66,777.18,122.76,85.66,30.22,162.92,51.52,233.81,64,867.36,149.81,543.79-1060.82,1671-408.62" transform="translate(0.54 -159.11)"/><path class="cls-4" d="M.34,640.78c572-336.09,1019.91,514.48,1539.84,490.51,109.41-5,219-43.22,332.08-127.68,124.41-92.36,333.63-124.84,567.65-116.85,271.75,8.88,550.75,39.06,777.85,117,85.31,29.29,162.54,50.87,234.12,63.62,861.51,153.35,550.66-992.81,1664.44-407.19" transform="translate(0.54 -159.11)"/><path class="cls-5" d="M.46,654.44C600,314.5,1030.05,1144,1544.48,1111.81c109.68-6.87,219.11-45.36,332.64-127.17,125.18-89.45,333.47-119.38,568.41-108.85,272.39,11.7,545.68,33.49,778.51,111.33,84.93,28.4,162.18,50.11,234.43,63.22C4314.39,1205.71,4016,125.54,5116.3,644.59" transform="translate(0.54 -159.11)"/><path class="cls-6" d="M.57,668.1c627.06-343.79,1039.33,464.55,1548.2,424.24,110-8.71,219-47.78,333.2-126.65,125.74-86.86,333.31-113.93,569.18-100.85,273,14.53,540.58,27.95,779.18,105.62,84.55,27.52,161.82,49.34,234.73,62.83,850.34,157.32,564.4-856.81,1651.24-404.33" transform="translate(0.54 -159.11)"/><path class="cls-7" d="M.69,681.75c654.58-347.64,1049.09,439.38,1552.39,391.1,110.27-10.58,219.08-50,333.75-126.14,126.48-84,333.15-108.47,569.95-92.85,273.68,17.35,535.46,22.44,779.85,99.9,84.16,26.67,161.46,48.57,235,62.43,844.76,159.22,571.27-788.8,1644.64-402.9" transform="translate(0.54 -159.11)"/><path class="cls-8" d="M.8,695.41c682.11-351.49,1058.89,414.07,1556.57,358,110.58-12.47,219.15-52.16,334.31-125.63,127.22-81.16,333-103,570.71-84.85,274.33,20.17,530.32,17,780.51,94.19,83.76,25.85,161.1,47.79,235.35,62,839.19,161.07,578.14-720.8,1638-401.48" transform="translate(0.54 -159.11)"/><path class="cls-9" d="M.91,709.07c709.64-355.34,1068.71,388.62,1560.76,324.82,110.89-14.38,219.22-54.35,334.87-125.12,128-78.31,332.84-97.56,571.48-76.85,275,23,525.15,11.55,781.18,88.47,83.35,25,160.75,47,235.66,61.65,833.63,162.87,585-652.8,1631.45-400" transform="translate(0.54 -159.11)"/><path class="cls-10" d="M1,722.73c737.16-359.2,1078.55,363,1564.94,291.68,111.21-16.31,219.3-56.54,335.43-124.6,128.72-75.45,332.68-92.11,572.25-68.85,275.62,25.81,520,6.16,781.85,82.76,82.93,24.26,160.39,46.23,236,61.25,828.08,164.62,591.88-584.79,1624.85-398.62" transform="translate(0.54 -159.11)"/><path class="cls-11" d="M1.14,736.39c764.69-363,1088.4,337.3,1569.12,258.55,111.54-18.27,219.39-58.72,336-124.09,129.47-72.59,332.52-86.65,573-60.85,276.26,28.63,514.78.81,782.52,77,82.5,23.49,160,45.44,236.27,60.86C4320.58,1114.21,4096.81,431.1,5116.3,550.7" transform="translate(0.54 -159.11)"/><path class="cls-12" d="M1.26,750c792.21-366.9,1098.26,311.44,1573.31,225.41,111.87-20.26,219.47-60.9,336.54-123.58,130.23-69.73,332.36-81.2,573.78-52.85,276.9,31.46,509.56-4.49,783.18,71.33,82.07,22.74,159.68,44.65,236.58,60.46,817,168,605.63-448.79,1611.65-395.77" transform="translate(0.54 -159.11)"/><path class="cls-13" d="M1.37,763.7C821.11,393,1109.5,1049.14,1578.86,956c112.2-22.27,219.56-63.07,337.1-123.07,131-66.87,332.2-75.74,574.54-44.85,277.55,34.28,504.33-9.75,783.85,65.62,81.63,22,159.32,43.86,236.89,60.07C4322.7,1083.32,4123.75,533,5116.3,519.4" transform="translate(0.54 -159.11)"/><path class="cls-14" d="M1.49,777.36c847.27-374.6,1118,259.31,1581.68,159.13,112.54-24.31,219.66-65.24,337.66-122.55,131.77-64,332-69.8,575.31-36.85,278.12,37.66,499.08-15,784.52,59.9,81.19,21.3,159,43.06,237.2,59.68,805.93,171.15,619.37-312.78,1598.46-392.91" transform="translate(0.54 -159.11)"/><path class="cls-15" d="M1.6,791c874.79-378.45,1127.83,233,1585.86,126,112.87-26.38,219.75-67.41,338.21-122,132.54-61.12,331.81-64.33,576.08-28.85,278.76,40.49,493.82-20.14,785.18,54.19,80.74,20.6,158.61,42.26,237.51,59.28,800.41,172.67,626.24-244.78,1591.86-391.48" transform="translate(0.54 -159.11)"/><path class="cls-16" d="M1.71,804.68c902.32-382.31,1137.66,206.65,1590,92.85C1705,869.06,1811.61,828,1930.53,776c133.31-58.24,331.65-58.87,576.84-20.85,279.4,43.32,488.55-25.26,785.85,48.47,80.29,19.91,158.26,41.46,237.81,58.89,794.9,174.15,633.11-176.78,1585.26-390.06" transform="translate(0.54 -159.11)"/><path class="cls-17" d="M1.83,818.34C931.67,432.18,1149.3,998.48,1596.06,878.05c113.52-30.6,220-71.73,339.33-121,134.09-55.36,331.48-53.41,577.61-12.85,280,46.15,483.26-30.33,786.52,42.76,79.84,19.24,157.91,40.65,238.12,58.49,789.4,175.6,640-108.77,1578.66-388.63" transform="translate(0.54 -159.11)"/><path class="cls-18" d="M1.94,832C959.31,442,1159.2,985.5,1600.36,858.57c113.84-32.75,220.06-73.88,339.89-120.5,134.87-52.47,331.32-48,578.38-4.85,280.67,49,478-35.35,787.19,37,79.38,18.58,157.55,39.84,238.43,58.1,783.91,177,646.85-40.77,1572.07-387.2" transform="translate(0.54 -159.11)"/><path class="cls-19" d="M2.06,845.66c984.89-393.86,1167,126.75,1602.6-6.56,114.15-34.93,220.17-76,340.44-120,135.65-49.58,331.16-42.5,579.14,3.15,281.31,51.78,472.65-40.32,787.85,31.33,78.92,17.94,157.2,39,238.74,57.71,778.43,178.36,653.72,27.23,1565.47-385.77" transform="translate(0.54 -159.11)"/><path class="cls-20" d="M2.17,859.31C1014.59,461.6,1178.9,959.2,1609,819.61c114.45-37.15,220.28-78.18,341-119.48,136.44-46.68,331-37.05,579.91,11.15,282,54.6,467.33-45.23,788.52,25.62,78.45,17.31,156.85,38.2,239,57.31,773,179.69,660.59,95.24,1558.87-384.34" transform="translate(0.54 -159.11)"/><path class="cls-21" d="M2.29,873c1039.95-401.56,1186.4,72.92,1611-72.84,114.73-39.39,220.39-80.32,341.56-119,137.22-43.77,330.94-32.1,580.68,19.15,282.71,56.85,462-50.1,789.19,19.9,78,16.68,156.5,37.38,239.36,56.92,767.49,181,667.46,163.24,1552.27-382.92" transform="translate(0.54 -159.11)"/><path class="cls-22" d="M2.4,886.63c1067.47-405.42,1196,45.85,1615.15-106,115-41.66,220.5-82.45,342.12-118.45,138-40.86,330.78-26.65,581.44,27.15,283.35,59.67,456.65-54.9,789.86,14.19,77.52,16.07,156.16,36.55,239.66,56.52C4332.66,942.3,4245,991.3,5116.3,378.57" transform="translate(0.54 -159.11)"/><path class="cls-23" d="M2.51,900.29C1097.51,491,1208.13,919,1621.85,761.17c115.27-44,220.61-84.58,342.67-117.94,138.8-37.94,330.62-21.19,582.21,35.14,284,62.49,451.3-59.65,790.52,8.47,77.05,15.47,155.81,35.72,240,56.13,756.58,183.47,681.2,299.25,1539.08-380.06" transform="translate(0.54 -159.11)"/><path class="cls-24" d="M2.63,913.95c1122.52-413.12,1215.14-8.58,1623.52-172.25,115.51-46.3,220.73-86.7,343.23-117.43,139.59-35,330.46-15.74,583,43.14,284.64,65.31,445.94-64.34,791.19,2.76,76.58,14.88,155.46,34.89,240.28,55.74C4335,910.57,4271.9,1093.16,5116.3,347.28" transform="translate(0.54 -159.11)"/><path class="cls-25" d="M2.74,927.61c1150-417,1224.61-35.93,1627.7-205.39,115.74-48.66,220.84-88.82,343.79-116.91,140.38-32.08,330.3-10.28,583.74,51.14,285.29,68.14,440.58-69,791.86-3,76.11,14.3,155.12,34,240.59,55.34,745.71,185.82,694.94,435.25,1525.88-377.21" transform="translate(0.54 -159.11)"/><path class="cls-26" d="M2.86,941.26c1177.58-420.82,1234-63.35,1631.89-238.53,115.95-51,221-90.93,344.35-116.4,141.17-29.15,330.14-4.83,584.51,59.14,285.93,71,435.21-73.53,792.52-8.67,75.64,13.73,154.78,33.2,240.9,54.95C4337.31,878.7,4298.84,1195,5116.3,316" transform="translate(0.54 -159.11)"/><path class="cls-27" d="M3,954.92C1208.07,530.25,1246.33,864.07,1639,683.25c116.13-53.47,221.07-93,344.9-115.89,142-26.2,330,.63,585.27,67.14,286.58,73.78,429.83-78,793.19-14.38,75.17,13.17,154.43,32.35,241.2,54.56,734.88,188,708.69,571.26,1512.69-374.35" transform="translate(0.54 -159.11)"/><path class="cls-28" d="M3.09,968.58C1235.71,540.06,1255.71,850.15,1643.34,663.77c116.3-55.92,221.18-95.13,345.46-115.38,142.75-23.25,329.83,6.08,586,75.14,287.22,76.6,424.45-82.47,793.86-20.1,74.7,12.61,154.09,31.5,241.51,54.16,729.48,189.11,715.56,639.26,1506.09-372.92" transform="translate(0.54 -159.11)"/><path class="cls-29" d="M3.2,982.24C1263.35,549.86,1265,836.17,1647.64,644.29c116.44-58.39,221.29-97.23,346-114.86,143.54-20.3,329.67,11.54,586.81,83.14C2868.34,692,2999.53,525.73,3375,586.76c74.23,12.07,153.75,30.64,241.82,53.77C4340.9,830.68,4339.24,1347.79,5116.3,269" transform="translate(0.54 -159.11)"/><path class="cls-30" d="M3.31,995.9C1291,559.67,1274.27,822.14,1651.94,624.81c116.55-60.9,221.4-99.32,346.58-114.35,144.32-17.33,329.51,17,587.57,91.14,288.51,82.24,413.67-91.15,795.19-31.52,73.76,11.53,153.42,29.78,242.13,53.37,718.71,191.16,729.3,775.27,1492.89-370.07" transform="translate(0.54 -159.11)"/><path class="cls-31" d="M3.43,1009.56c1315.2-440.08,1280-201.51,1652.81-404.22,116.64-63.42,221.51-101.4,347.13-113.84,145.11-14.36,329.35,22.45,588.34,99.14,289.16,85.07,408.27-95.39,795.86-37.24,73.29,11,153.08,28.91,242.44,53,713.33,192.15,736.17,843.27,1486.29-368.64" transform="translate(0.54 -159.11)"/><path class="cls-32" d="M3.54,1023.21c1342.73-443.93,1289-229.3,1657-437.36,116.7-66,221.62-103.48,347.69-113.33,145.89-11.39,329.19,27.9,589.11,107.14,289.8,87.89,402.87-99.56,796.53-43,72.82,10.47,152.75,28,242.75,52.59,708,193.11,743,911.27,1479.7-367.21" transform="translate(0.54 -159.11)"/><path class="cls-33" d="M3.66,1036.87c1370.26-447.78,1297.88-257.14,1661.18-470.5,116.73-68.56,221.73-105.33,348.25-112.81,146.68-8.15,329,33.36,589.87,115.14,290.45,90.71,397.48-103.65,797.2-48.67,72.36,10,152.41,27.16,243.05,52.19,702.62,194,749.91,979.28,1473.1-365.78" transform="translate(0.54 -159.11)"/><path class="cls-34" d="M3.77,1050.53c1397.78-451.63,1306.69-285,1665.36-503.64,116.74-71.16,221.83-107.48,348.81-112.3,147.45-5.24,328.88,38.81,590.64,123.14,291.09,93.53,392.08-107.67,797.86-54.38,71.89,9.44,152.12,26.13,243.36,51.8C4347.39,749,4406.58,1602.43,5116.3,190.8" transform="translate(0.54 -159.11)"/><path class="cls-35" d="M3.89,1064.19C1429.19,608.7,1319.31,751.29,1673.43,527.41c116.71-73.78,221.92-109.62,349.36-111.79,148.22-2.34,328.72,44.27,591.41,131.14,291.74,96.35,386.67-111.62,798.53-60.09,71.43,8.94,151.77,25.32,243.67,51.4,692.11,195.28,763.65,1115.28,1459.9-362.93" transform="translate(0.54 -159.11)"/><path class="cls-36" d="M4,1077.85C1456.83,618.51,1328.07,737,1677.73,507.93c252.53-165.45,452.17-138.32,942.09,27.86,342,116,405.6-197.45,1043.17-14.8,686.63,196.7,770.52,1183.29,1453.3-361.5" transform="translate(0.54 -159.11)"/></svg>